<svg width="900" height="1020" xmlns="http://www.w3.org/2000/svg">
  <style>
    .text {
      fill: #ffffff80;
    }
    .text-tag {
      fill: #296bbe;
      font-size: 12px;
    }
    .grid-frame {
      fill: #296bbe;
      stroke: #ffffff80;
    }
  </style>
  <defs>
    <pattern x="24" y="24" id="smallGrid" width="12" height="12" patternUnits="userSpaceOnUse">
      <path d="M 12 0 L 0 0 0 12" fill="none" stroke="#ffffffcc" stroke-width="0.5" />
    </pattern>
    <pattern x="30" y="30" id="grid" width="120" height="120" patternUnits="userSpaceOnUse">
      <rect width="120" height="120" fill="url(#smallGrid)" />
      <path d="M 120 0 L 0 0 0 120" fill="none" stroke="#ffffffcc" stroke-width="1" />
    </pattern>
  </defs>
    <title>GEM project</title>
  <g>
    <rect class="grid-frame" x="0" y="0" width="900" height="1020" stroke-width="0" />
    <rect class="grid-frame" x="20" y="20" width="860" height="980" stroke-width="3" />
    <rect class="grid-frame" x="30" y="30" width="840" height="960" stroke-width="2" />
    <rect x="30" y="30" width="840" height="960" fill="url(#grid)" />
  </g>
  <!-- 镌刻文字 -->
  <text class="text" x="40" y="980" width="50%">Sint eiusmod commodo velit pariatur dolor aliqua nostrud aliquip ad velit commodo aliqua.</text>
  <!-- 属性box -->
  <g>
    <rect x="582" y="870" width="288" height="120" fill="#296bbe" stroke="#ffffffcc" stroke-width="0.5" />
    <text class="text" x="600" y="900">CRYSTAL #1</text>
    <g>
      <rect ry="3" rx="3" fill="#ffffffcc" height="21" width="21" y="915" x="600" />
      <text font-size="12px" fill="#296bbe" class="text-tag" y="930" x="606">C</text>
      <text class="text" y="930" x="630">#A31480</text>
    </g>
    <g>
      <rect ry="3" rx="3" fill="#ffffffcc" height="21" width="21" y="945" x="600" />
      <text font-size="12px" fill="#296bbe" class="text-tag" y="960" x="606">C</text>
      <text class="text" y="960" x="630">32</text>
    </g>
    <g>
      <rect ry="3" rx="3" fill="#ffffffcc" height="21" width="21" y="915" x="750" />
      <text font-size="12px" fill="#296bbe" class="text-tag" y="930" x="756">L</text>
      <text class="text" y="930" x="786">42</text>
    </g>
    <g>
      <rect ry="3" rx="3" fill="#ffffffcc" height="21" width="21" y="944" x="750" />
      <text font-size="12px" fill="#296bbe" class="text-tag" y="959" x="756">H</text>
      <text class="text" y="960" x="786">24</text>
    </g>
  </g>
  <g><g height="840" width="840" style="margin: 20px"><path d="M368.4 664.8 L470.4 819.6 L454.8 723.6 Z" style="fill: #ffffff15; stroke: white; stroke-width: 1" /><path d="M470.4 819.6 L608.4 703.1999999999999 L454.8 723.6 Z" style="fill: #ffffff15; stroke: white; stroke-width: 1" /><path d="M454.8 723.6 L608.4 703.1999999999999 L368.4 664.8 Z" style="fill: #ffffff15; stroke: white; stroke-width: 1" /><path d="M372 189.6 L244.79999999999998 217.2 L368.4 664.8 Z" style="fill: #ffffff15; stroke: white; stroke-width: 1" /><path d="M608.4 703.1999999999999 L520.8 226.79999999999998 L368.4 664.8 Z" style="fill: #ffffff15; stroke: white; stroke-width: 1" /><path d="M520.8 226.79999999999998 L372 189.6 L368.4 664.8 Z" style="fill: #ffffff15; stroke: white; stroke-width: 1" /><path d="M520.8 226.79999999999998 L390 106.8 L372 189.6 Z" style="fill: #ffffff15; stroke: white; stroke-width: 1" /><path d="M372 189.6 L390 106.8 L244.79999999999998 217.2 Z" style="fill: #ffffff15; stroke: white; stroke-width: 1" /><path d="M608.4 703.1999999999999 L691.1999999999999 196.79999999999998 L520.8 226.79999999999998 Z" style="fill: #ffffff15; stroke: white; stroke-width: 1" /><path d="M520.8 226.79999999999998 L691.1999999999999 196.79999999999998 L390 106.8 Z" style="fill: #ffffff15; stroke: white; stroke-width: 1" /><circle cx="390" cy="106.8" r="5" style="fill:white;" /><circle cx="244.79999999999998" cy="217.2" r="5" style="fill:white;" /><circle cx="372" cy="189.6" r="5" style="fill:white;" /><circle cx="520.8" cy="226.79999999999998" r="5" style="fill:white;" /><circle cx="691.1999999999999" cy="196.79999999999998" r="5" style="fill:white;" /><circle cx="368.4" cy="664.8" r="5" style="fill:white;" /><circle cx="454.8" cy="723.6" r="5" style="fill:white;" /><circle cx="608.4" cy="703.1999999999999" r="5" style="fill:white;" /><circle cx="470.4" cy="819.6" r="5" style="fill:white;" /></g></g>
</svg>